# xmcd
#
# Track frame offsets: 
#        150
#        10315
#        19692
#        29464
#        39087
#        50835
#        59809
#        72181
#        83553
#        95722
#        105705
#        117794
#        130893
#        145221
#
# Disc length: 2064 seconds
#
# Revision: 0
# Processed by: cddbd v1.5.2PL0 Copyright (c) Steve Scherf et al.
# Submitted via: ExactAudioCopy v0.99pb5
#
DISCID=bf080e0e
DTITLE=Wilton Champagne - Wilton
DYEAR=2011
DGENRE=Country
TTITLE0=01 - Precious Jewel
TTITLE1=02 - Have you ever been lonely
TTITLE2=03 - Blackboard of my heart
TTITLE3=04 - I'll cry tomorrow again
TTITLE4=05 - Close every honky tonk
TTITLE5=06 - May you never be alone like me
TTITLE6=07 - Almost persuaded
TTITLE7=08 - That Little Boy of mine
TTITLE8=09 - Our baby's book
TTITLE9=10 - Jealous Heart
TTITLE10=11 - My Mother, The Queen of my Heart
TTITLE11=12 - Green Green Grass of Home
TTITLE12=13 - Soldiers Last Letter
TTITLE13=14 - Wild Side of Life
EXTD=
EXTT0=
EXTT1=
EXTT2=
EXTT3=
EXTT4=
EXTT5=
EXTT6=
EXTT7=
EXTT8=
EXTT9=
EXTT10=
EXTT11=
EXTT12=
EXTT13=
PLAYORDER=
